<?xml version="1.0" standalone="no"?>
<!DOCTYPE svg PUBLIC "-//W3C//DTD SVG 20010904//EN"
 "http://www.w3.org/TR/2001/REC-SVG-20010904/DTD/svg10.dtd">
<svg version="1.0" xmlns="http://www.w3.org/2000/svg"
 width="16.000000pt" height="16.000000pt" viewBox="0 0 16.000000 16.000000"
 preserveAspectRatio="xMidYMid meet">
<metadata>
Created by potrace 1.11, written by Peter Selinger 2001-2013
</metadata>
<g transform="translate(0.000000,16.000000) scale(0.007373,-0.007373)"
fill="#000000" stroke="none">
<path d="M977 2134 c-2 -2 -23 -6 -47 -9 -25 -3 -81 -16 -125 -29 -393 -116
-685 -435 -759 -831 -26 -140 -14 -342 29 -480 64 -203 206 -405 376 -533 71
-54 208 -132 230 -132 10 0 19 -4 21 -8 4 -11 171 -59 233 -68 28 -3 59 -8 70
-10 75 -15 272 0 400 30 176 41 392 170 524 311 64 69 152 197 183 267 l17 36
-32 15 c-18 8 -75 31 -127 52 -52 20 -108 43 -125 50 -24 10 -653 263 -702
282 -7 3 -10 9 -7 14 3 5 10 7 15 4 5 -4 9 -1 9 4 0 6 8 11 18 11 10 0 22 3
26 7 3 4 12 8 19 9 10 2 277 109 332 133 22 10 508 205 550 221 l25 10 -31 62
c-150 298 -438 508 -782 572 -78 15 -328 22 -340 10z"/>
</g>
</svg>
